# xmcd
#
# Track frame offsets: 
#        150
#        16597
#        27467
#        41704
#        54359
#        74184
#        85604
#        100054
#        111436
#        129976
#        141871
#        155171
#        167034
#        183319
#        192624
#        199474
#        211776
#        227339
#        243594
#        256966
#
# Disc length: 3756 seconds
#
# Revision: 0
# Processed by: cddbd v1.5.2PL0 Copyright (c) Steve Scherf et al.
# Submitted via: ExactAudioCopy v0.99pb5
#
DISCID=1e0eaa14
DTITLE=Drag The River - Primer
DYEAR=2009
DGENRE=Country
TTITLE0=Brookfield
TTITLE1=rangement
TTITLE2=beautiful and damned
TTITLE3=Me and Joe drove out to California
TTITLE4=Waylon
TTITLE5=strange
TTITLE6=she used to smile
TTITLE7=hang-dog
TTITLE8=sterilize
TTITLE9=crocodile wings
TTITLE10=Modern Drunkard
TTITLE11=having a party
TTITLE12=medicine
TTITLE13=calloused heart #2
TTITLE14=get drunk
TTITLE15=br00tal
TTITLE16=oxes and horses
TTITLE17=Bug Country
TTITLE18=hybrid moments
TTITLE19=dancing in the moonlight
EXTD=
EXTT0=
EXTT1=
EXTT2=
EXTT3=
EXTT4=
EXTT5=
EXTT6=
EXTT7=
EXTT8=
EXTT9=
EXTT10=
EXTT11=
EXTT12=
EXTT13=
EXTT14=
EXTT15=
EXTT16=
EXTT17=
EXTT18=
EXTT19=
PLAYORDER=
